{"title":"Sawney Flesh of Man 2012 BRRip 720p x264 AAC - PRiSTiNE [P2PDL]","uid":8758076,"size":538707138,"categoryP":"video","categoryS":"hd___movies","magnet":"?xt=urn:btih:90f834feee6ddcb933058a24ea107fe788216070&amp;dn=Sawney+Flesh+of+Man+2012+BRRip+720p+x264+AAC+-+PRiSTiNE+%5BP2PDL%5D&amp;tr=udp%3A%2F%2Ftracker.openbittorrent.com%3A80&amp;tr=udp%3A%2F%2Fopen.demonii.com%3A1337&amp;tr=udp%3A%2F%2Ftracker.coppersurfer.tk%3A6969&amp;tr=udp%3A%2F%2Fexodus.desync.com%3A6969","seeders":0,"leechers":2,"uploader":"ValidusVyto","files":-1,"time":1375142733,"description":"_______ Visit us at our Semi Public Bittorrent Community ________\n  &lt;a href=&quot;\nhttp://p2pdl.com&quot; rel=&quot;nofollow&quot; target=&quot;_NEW&quot;&gt;\nhttp://p2pdl.com&lt;/a&gt;  _____________________________ &lt;a href=&quot; http://p2pdl.com&quot; rel=&quot;nofollow&quot; target=&quot;_NEW&quot;&gt; http://p2pdl.com&lt;/a&gt;\n\n\nSawney Flesh of Man 2012 BRRip 720p x264 AAC - PRiSTiNE\n\n\nGenre: Horror\nPlot: Scottish cannibal Sawney Bean and his murderous, \ninbred family are responsible for over a thousand \nmurders over the centuries..\nDirector: Ricky Wood\nStars:  Elizabeth Brown, Lisa Cameron, Lindsay Cromar\nRated: Rated R for bloody violence, grisly images, language, \nsome sexual content and brief drug use\n\nInfo: &lt;a href=&quot;\nhttp://www.imdb.com/title/tt1887748/&quot; rel=&quot;nofollow&quot; target=&quot;_NEW&quot;&gt;\nhttp://www.imdb.com/title/tt1887748/&lt;/a&gt;\n\nGeneral\nFormat                                   : MPEG-4\nFile size                                : 508 MiB\nDuration                                 : 1h 26mn\nOverall bit rate mode                    : Variable\nOverall bit rate                         : 821 Kbps\n\nVideo\nFormat                                   : AVC\nBit rate                                 : 740 Kbps\nWidth                                    : 1 280 pixels\nHeight                                   : 544 pixels\nDisplay aspect ratio                     : 2.35:1\nFrame rate mode                          : Constant\nFrame rate                               : 25.000 fps\nBit depth                                : 10 bits\nStream size                              : 458 MiB (90%)\nWriting library                          : x264 core 130 r2273 b3065e6\n\nAudio\nFormat                                   : AAC\nBit rate                                 : 78.8 Kbps\nSampling rate                            : 48.0 KHz / 24.0 KHz\nStream size                              : 48.8 MiB (10%)\nLanguage                                 : English\n\nSubtitle                                 : No\nSource                                   : pFa\n &lt;a href=&quot;\nhttp://someimage.com/mUyYHQ4&quot; rel=&quot;nofollow&quot; target=&quot;_NEW&quot;&gt;\nhttp://someimage.com/mUyYHQ4&lt;/a&gt; &lt;a href=&quot;\nhttp://someimage.com/lgQPEyn&quot; rel=&quot;nofollow&quot; target=&quot;_NEW&quot;&gt;\nhttp://someimage.com/lgQPEyn&lt;/a&gt; &lt;a href=&quot;\nhttp://someimage.com/THPThCq&quot; rel=&quot;nofollow&quot; target=&quot;_NEW&quot;&gt;\nhttp://someimage.com/THPThCq&lt;/a&gt; &lt;a href=&quot;\nhttp://someimage.com/VWfpivU&quot; rel=&quot;nofollow&quot; target=&quot;_NEW&quot;&gt;\nhttp://someimage.com/VWfpivU&lt;/a&gt; &lt;a href=&quot;\nhttp://someimage.com/h6yYMAJ&quot; rel=&quot;nofollow&quot; target=&quot;_NEW&quot;&gt;\nhttp://someimage.com/h6yYMAJ&lt;/a&gt;\n\n----------------------------------------------------------------------------------------------------\n\n\nEncoded using revolutionary 10bit encoding, which enables us to provide you more crispier \nand sharper images at small sizes, just make sure you follow our instructions without a fault.\nRecommend to you to use latest version of VLC player. Install K-Lite Codec Pack or shark007 codecs\nin case of any kind of problem in playback (For non-VLC Media Player users). Alternatively, install\nCore AVC codecs, the fastest decoder that there is coupled with Community Center Codec Pack and play\non Windows Media Player Classic. Check sample to be sure.\nEnjoy!\n\nEncoder Notes:Looking For Early Access To Anything You Can Provide DVDScr, R5, DVDR, BluRay, Direct\nAudio, Music Releases and Seedboxes. We require dedicated servers, so as to do more \nand fast releases of movies.\nIf You Got anything to offer please contact us at &quot;&lt;a class=&quot;__cf_email__&quot; href=&quot;/cdn-cgi/l/email-protection&quot; data-cfemail=&quot;d0a0a2b790b8a5a3b8feb3bfbd&quot;&gt;[email&amp;#160;protected]&lt;/a&gt;&lt;script cf-hash='f9e31' type=&quot;text/javascript&quot;&gt;\n/* &lt;![CDATA[ */!function(){try{var t=&quot;currentScript&quot;in document?document.currentScript:function(){for(var t=document.getElementsByTagName(&quot;script&quot;),e=t.length;e--;)if(t[e].getAttribute(&quot;cf-hash&quot;))return t[e]}();if(t&amp;&amp;t.previousSibling){var e,r,n,i,c=t.previousSibling,a=c.getAttribute(&quot;data-cfemail&quot;);if(a){for(e=&quot;&quot;,r=parseInt(a.substr(0,2),16),n=2;a.length-n;n+=2)i=parseInt(a.substr(n,2),16)^r,e+=String.fromCharCode(i);e=document.createTextNode(e),c.parentNode.replaceChild(e,c)}}}catch(u){}}();/* ]]&gt; */&lt;/script&gt;&quot;.\n\nFace book Fan Page:  \nSearch P2PDL on FB.","torrent":{"xt":"urn:btih:90f834feee6ddcb933058a24ea107fe788216070","amp;dn":"Sawney+Flesh+of+Man+2012+BRRip+720p+x264+AAC+-+PRiSTiNE+%5BP2PDL%5D","amp;tr":["udp%3A%2F%2Ftracker.openbittorrent.com%3A80","udp%3A%2F%2Fopen.demonii.com%3A1337","udp%3A%2F%2Ftracker.coppersurfer.tk%3A6969","udp%3A%2F%2Fexodus.desync.com%3A6969"],"infoHash":"90f834feee6ddcb933058a24ea107fe788216070","infoHashBuffer":{"type":"Buffer","data":[144,248,52,254,238,109,220,185,51,5,138,36,234,16,127,231,136,33,96,112]},"announce":[],"urlList":[]}}